<svg width="302" height="177" viewBox="0 0 302 177" fill="none" xmlns="http://www.w3.org/2000/svg">
<path d="M299.669 170.26C298.559 172.273 296.482 173.747 293.446 174.668C290.407 175.59 286.451 175.941 281.671 175.735C272.112 175.323 259.369 172.686 244.318 168.08C214.225 158.869 175.015 141.815 133.826 119.096C92.6382 96.3771 57.2965 72.3086 33.4532 51.7684C21.5284 41.4956 12.5004 32.1228 7.05251 24.2577C4.328 20.3242 2.51543 16.7912 1.67381 13.7292C0.83286 10.6698 0.972177 8.12605 2.08238 6.11332C3.19259 4.10058 5.26983 2.62582 8.30625 1.70506C11.3451 0.783562 15.3004 0.432017 20.0808 0.638237C29.6396 1.05059 42.3833 3.68695 57.4337 8.29341C87.5264 17.5039 126.737 34.5579 167.925 57.277C209.114 79.9961 244.455 104.065 268.299 124.605C280.223 134.878 289.251 144.25 294.699 152.116C297.424 156.049 299.236 159.582 300.078 162.644C300.919 165.703 300.78 168.247 299.669 170.26Z" stroke="black"/>
</svg>
