<svg width="62" height="62" viewBox="0 0 62 62" fill="none" xmlns="http://www.w3.org/2000/svg">
<path d="M40.8522 51.3303C52.2748 45.7674 57.0545 32.051 51.5279 20.6941C46.0013 9.33714 32.2613 4.64021 20.8387 10.2032C9.4161 15.7662 4.63642 29.4825 10.163 40.8395C15.6896 52.1964 29.4296 56.8933 40.8522 51.3303Z" fill="#B9FF66"/>
<path d="M30.7298 54.1986C28.2786 54.1986 25.7803 53.8213 23.3527 52.9961C17.4132 51.0155 12.6051 46.8656 9.82395 41.2539C7.04278 35.6658 6.61854 29.3231 8.62192 23.3813C12.7701 11.144 26.1102 4.47121 38.3898 8.55032C44.3292 10.5309 49.1373 14.6808 51.9185 20.2925C54.6997 25.8806 55.1239 32.2233 53.1205 38.1651C49.7737 47.9738 40.5581 54.1986 30.7298 54.1986ZM30.9655 8.40884C21.5614 8.40884 12.7465 14.3507 9.56469 23.735C7.65559 29.4174 8.05625 35.4771 10.7196 40.8059C13.3829 46.1583 17.9789 50.143 23.6591 52.0293C35.3965 55.9198 48.1474 49.5536 52.107 37.8586C54.0161 32.1761 53.6155 26.1164 50.9522 20.7876C48.2888 15.4353 43.6929 11.4505 38.0127 9.5642C35.6793 8.76252 33.2988 8.40884 30.9655 8.40884Z" fill="black"/>
<path d="M42.5608 27.0601C42.3251 32.7897 32.6382 46.1824 30.3284 49.3184C30.0927 49.6485 29.5978 49.6249 29.3857 49.2712C27.9244 46.9133 23.0927 38.9909 20.5708 32.5775C19.5573 30.031 18.921 27.7203 18.9917 26.0934C19.2509 19.5857 24.7426 14.5163 31.2476 14.7756C37.7527 15.0822 42.8201 20.5524 42.5608 27.0601Z" fill="black"/>
<path d="M34.5881 30.4103C36.6958 28.3017 36.6958 24.8829 34.5881 22.7743C32.4803 20.6657 29.0629 20.6657 26.9551 22.7743C24.8474 24.8829 24.8474 28.3017 26.9551 30.4103C29.0629 32.5189 32.4803 32.5189 34.5881 30.4103Z" fill="#B9FF66"/>
</svg>
