<svg width="58" height="58" viewBox="0 0 58 58" fill="none" xmlns="http://www.w3.org/2000/svg">
<path d="M43.1563 43.3181C51.0443 35.4269 51.0443 22.6327 43.1563 14.7415C35.2682 6.85028 22.4792 6.85028 14.5912 14.7415C6.70311 22.6327 6.70311 35.4269 14.5911 43.3181C22.4792 51.2093 35.2682 51.2093 43.1563 43.3181Z" fill="#B9FF66"/>
<path d="M28.8697 49.7472C17.4622 49.7472 8.15234 40.4572 8.15234 29.0215C8.15234 17.6095 17.4386 8.2959 28.8697 8.2959C40.3007 8.2959 49.587 17.5859 49.587 29.0215C49.587 40.4336 40.3007 49.7472 28.8697 49.7472ZM28.8697 9.33336C18.0278 9.33336 9.18939 18.1518 9.18939 29.0215C9.18939 39.8677 18.0043 48.7097 28.8697 48.7097C39.7115 48.7097 48.5499 39.8913 48.5499 29.0215C48.5499 18.1754 39.735 9.33336 28.8697 9.33336Z" fill="#B9FF66"/>
<path d="M34.3391 31.0256C33.2077 31.0256 32.2178 31.5679 31.5579 32.4167L24.7464 29.7524C24.7464 29.658 24.77 29.5873 24.77 29.493C24.77 29.3279 24.7464 29.1629 24.7228 28.9978L31.6993 25.7676C32.3357 26.4985 33.2784 26.9701 34.3391 26.9937C36.2717 26.9937 37.8744 25.4139 37.8744 23.4569C37.8744 21.4998 36.2953 19.8965 34.3391 19.8965C32.4064 19.8965 30.8037 21.4763 30.8037 23.4333C30.8037 23.5983 30.8273 23.7634 30.8508 23.9284L23.8743 27.1587C23.238 26.4278 22.2952 25.9562 21.2346 25.9326C19.3019 25.9326 17.6992 27.5124 17.6992 29.4694C17.6992 31.4264 19.2784 33.0298 21.2346 33.0298C22.3659 33.0298 23.3558 32.4875 24.0158 31.6386L30.8273 34.303C30.8273 34.3974 30.8037 34.4681 30.8037 34.5624C30.8037 36.5194 32.3828 38.1228 34.3391 38.1228C36.2717 38.1228 37.8744 36.543 37.8744 34.586C37.8509 32.629 36.2717 31.0492 34.3391 31.0256Z" fill="black"/>
</svg>
