<svg width="60" height="60" viewBox="0 0 60 60" fill="none" xmlns="http://www.w3.org/2000/svg">
<path d="M40.0312 49.117C50.806 43.4566 54.9734 30.167 49.3394 19.434C43.7054 8.70097 30.4035 4.58886 19.6286 10.2493C8.85385 15.9098 4.6864 29.1994 10.3204 39.9324C15.9544 50.6654 29.2564 54.7775 40.0312 49.117Z" fill="black"/>
<path d="M19.7934 24.8211C20.8304 23.4063 22.3624 22.5339 24.1065 22.3453C25.4264 22.2038 26.652 22.4868 27.8069 23.1941C28.3961 23.5478 28.9147 23.9958 29.4096 24.5381C29.7631 23.9015 30.1874 23.3356 30.6823 22.864C31.6487 21.9209 32.8036 21.3786 34.0999 21.2371C35.844 21.0485 37.541 21.5672 38.8608 22.7226C40.1571 23.8543 40.9821 25.5048 41.1942 27.3676C41.4063 29.2774 40.8878 31.1166 39.5679 33.1443C38.3895 34.9599 36.5982 36.8462 34.5241 39.0626C33.817 39.8171 33.0157 40.6659 32.1908 41.5619C31.9786 41.7977 31.6723 41.9627 31.3423 41.9863C31.0123 42.0335 30.7059 41.9392 30.4231 41.7505C29.4096 41.0432 28.4433 40.383 27.5948 39.8171C25.0964 38.1194 22.9281 36.6575 21.3725 35.1485C19.6284 33.4744 18.7328 31.7768 18.5206 29.8669C18.3321 28.0042 18.7799 26.2122 19.7934 24.8211Z" fill="white"/>
</svg>
