<svg width="206" height="222" viewBox="0 0 206 222" fill="none" xmlns="http://www.w3.org/2000/svg">
<path d="M92.1791 220.899C88.3845 222.196 84.0478 219.626 82.5394 215.169L59.0645 146.39L72.7817 141.698L96.2802 210.571C97.7886 214.981 95.9502 219.602 92.1791 220.899Z" fill="black"/>
<path d="M90.1294 221.747C89.0216 221.747 87.8903 221.488 86.8061 220.946C84.6142 219.861 82.8701 217.833 82.0216 215.334L58.5467 146.555C58.4524 146.296 58.5938 145.989 58.8766 145.895L72.5939 141.203C72.7353 141.156 72.8767 141.156 72.9946 141.226C73.1124 141.297 73.2067 141.391 73.2538 141.533L96.7523 210.406C98.3314 215.075 96.3516 220.003 92.3213 221.394C91.6378 221.63 90.8836 221.747 90.1294 221.747ZM59.7251 146.72L83.035 215.004C83.7892 217.244 85.3448 219.083 87.2775 220.026C88.833 220.781 90.5065 220.922 92.0149 220.403C95.5031 219.201 97.2001 214.862 95.786 210.736L72.4525 142.358L59.7251 146.72Z" fill="black"/>
<path d="M70.3535 82.3273L25.9727 113.993L8.69651 131.937L1.90859 143.938L1.88502 144.033C0.541579 146.107 1.31936 150.894 3.84126 155.775C6.31603 160.585 9.80426 163.933 12.2555 164.122L12.1847 164.169L25.2185 165.583L49.6126 161.693L101.394 143.16L165.761 154.195L166.209 154.219C150.041 151.2 128.216 129.579 112.354 98.9974C96.5152 68.4395 91.4714 38.2352 98.4243 23.3335H98.4008L70.707 81.5728L70.3535 82.3273Z" fill="#B9FF66"/>
<path d="M176.908 152.887C192.816 144.622 189.74 107.155 170.037 69.2015C150.335 31.2479 121.467 7.18016 105.559 15.4448C89.6517 23.7094 92.7277 61.1767 112.43 99.1303C132.132 137.084 161 161.152 176.908 152.887Z" fill="white"/>
<path d="M169.912 155.044C162.983 155.044 154.639 151.177 145.659 143.656C133.427 133.422 121.43 117.648 111.885 99.2098C97.4368 71.2927 91.4738 42.6682 96.7062 26.2811C98.4503 20.8108 101.373 16.9911 105.356 14.9397C113.275 10.8842 124.424 14.3267 136.774 24.6541C149.006 34.8873 161.003 50.6614 170.548 69.0999C185.02 97.017 190.983 125.641 185.727 142.029C183.983 147.499 181.06 151.319 177.077 153.37C174.932 154.502 172.528 155.044 169.912 155.044ZM112.568 14.3267C110.141 14.3267 107.878 14.8218 105.851 15.8829C102.104 17.7927 99.3695 21.4239 97.7196 26.6347C92.558 42.7861 98.4974 71.1041 112.827 98.7854C132.343 136.44 160.956 160.538 176.629 152.498C180.377 150.588 183.111 146.957 184.761 141.746C189.922 125.594 183.983 97.2764 169.653 69.595C152.659 36.8207 128.807 14.3267 112.568 14.3267Z" fill="black"/>
<path d="M169.91 155.043C162.981 155.043 154.637 151.177 145.657 143.655C133.425 133.422 121.428 117.648 111.883 99.2092C97.4349 71.2921 91.4719 42.6676 96.7042 26.2805C98.4483 20.8102 101.371 16.9905 105.354 14.9392C110.657 12.204 117.586 12.8878 125.388 16.8962C132.859 20.7395 140.944 27.5537 148.816 36.5844C149.004 36.7966 148.981 37.1267 148.769 37.3153C148.556 37.5039 148.226 37.4803 148.038 37.2681C132.058 18.9239 115.89 10.7186 105.849 15.8823C102.102 17.7922 99.3675 21.4233 97.7177 26.6342C92.556 42.7855 98.4955 71.1035 112.826 98.7848C129.795 131.536 153.671 154.053 169.886 154.053C172.314 154.053 174.577 153.558 176.604 152.497C180.351 150.587 183.085 146.956 184.735 141.745C189.897 125.594 183.957 97.2758 169.627 69.5945C165.361 61.3419 160.553 53.5846 155.391 46.5345C155.226 46.2988 155.274 45.9687 155.509 45.8036C155.745 45.6386 156.075 45.6857 156.24 45.9215C161.449 53.0187 166.257 60.8232 170.57 69.1229C185.018 97.0164 190.981 125.641 185.725 142.028C183.981 147.498 181.058 151.318 177.075 153.369C174.93 154.501 172.526 155.043 169.91 155.043Z" fill="black"/>
<path d="M140.813 104.573C144.499 102.659 143.79 93.9862 139.23 85.2028C134.671 76.4194 127.987 70.8511 124.302 72.7657C120.616 74.6803 121.325 83.3528 125.885 92.1362C130.444 100.92 137.128 106.488 140.813 104.573Z" fill="#B9FF66"/>
<path d="M139.199 105.481C135.145 105.481 129.489 100.247 125.411 92.3482C122.017 85.7933 120.627 79.0498 121.876 75.1593C122.324 73.7918 123.054 72.825 124.068 72.3063C128.075 70.255 134.933 75.8431 139.694 85.0152C143.088 91.5701 144.479 98.3136 143.23 102.204C142.782 103.572 142.051 104.538 141.038 105.057C140.472 105.34 139.859 105.481 139.199 105.481ZM125.906 72.8958C125.411 72.8958 124.94 72.9901 124.539 73.2023C123.762 73.6031 123.196 74.3577 122.842 75.4658C121.687 79.097 123.031 85.5575 126.307 91.8766C130.644 100.247 137.172 105.882 140.543 104.137C141.321 103.737 141.886 102.982 142.24 101.874C143.395 98.2192 142.028 91.7823 138.775 85.4632C134.957 78.1302 129.489 72.8958 125.906 72.8958Z" fill="#B9FF66"/>
<path d="M166.328 146.248C160.247 146.248 152.941 142.853 145.069 136.275C134.368 127.315 123.857 113.498 115.513 97.3698C102.857 72.9423 97.6477 47.8782 102.22 33.5188C103.752 28.7087 106.321 25.3606 109.833 23.545C117.894 19.4188 129.749 24.1816 142.382 36.6076C142.594 36.8198 142.594 37.1263 142.382 37.3385C142.17 37.5507 141.863 37.5507 141.651 37.3385C129.348 25.2427 117.917 20.5269 110.304 24.4646C107.052 26.1387 104.671 29.2746 103.21 33.8253C98.7083 47.9253 103.894 72.6829 116.432 96.8982C131.257 125.546 152.116 145.211 166.305 145.211C168.426 145.211 170.382 144.763 172.173 143.867C175.426 142.193 177.806 139.057 179.268 134.506C183.769 120.406 178.584 95.6485 166.045 71.4333C162.251 64.1239 158.008 57.2625 153.436 51.0613C153.271 50.8255 153.318 50.4954 153.554 50.3304C153.789 50.1653 154.119 50.2125 154.284 50.4483C158.904 56.7202 163.17 63.6051 166.988 70.9617C179.645 95.3892 184.854 120.453 180.281 134.813C178.749 139.623 176.18 142.971 172.668 144.786C170.736 145.753 168.615 146.248 166.328 146.248Z" fill="black"/>
<path d="M25.2439 166.079C25.2203 166.079 25.1967 166.079 25.1967 166.079L12.163 164.664C12.0923 164.664 12.0216 164.641 11.9509 164.593C9.26397 164.169 5.87001 160.774 3.39525 156.011C0.755501 150.988 -0.0222817 146.084 1.41544 143.773L1.43901 143.703L8.22693 131.678C8.2505 131.63 8.27407 131.607 8.29764 131.583L25.5738 113.64C25.5974 113.616 25.621 113.593 25.6445 113.569L69.9075 81.9738L97.9076 23.0979C97.9783 22.98 98.0726 22.8857 98.214 22.8385C98.3554 22.7914 98.4969 22.7914 98.6147 22.8621C98.874 22.98 98.9918 23.2865 98.874 23.5459C91.7796 38.7541 97.3891 68.9819 112.803 98.7382C128.241 128.542 149.76 150.611 166.329 153.653C166.588 153.7 166.777 153.936 166.753 154.219C166.73 154.478 166.494 154.667 166.235 154.69L165.787 154.667C165.763 154.667 165.74 154.667 165.716 154.667L101.467 143.656L49.8029 162.141C49.7794 162.141 49.7322 162.165 49.7087 162.165L25.3146 166.055C25.291 166.079 25.2674 166.079 25.2439 166.079ZM12.5401 163.674L25.2439 165.041L49.5201 161.151L101.278 142.642C101.372 142.618 101.443 142.594 101.537 142.618L159.376 152.521C143.75 145.66 125.484 125.406 111.931 99.2334C98.4733 73.2497 92.4632 46.8652 95.7628 30.1951L70.8267 82.5397C70.7795 82.6104 70.7324 82.6811 70.6617 82.7283L26.3281 114.394L9.12256 132.243L2.33464 144.269C2.33464 144.292 2.31107 144.316 2.31107 144.316C1.08547 146.226 1.91039 150.941 4.29088 155.539C6.62422 160.043 9.99462 163.438 12.3044 163.603C12.3987 163.603 12.4694 163.627 12.5401 163.674Z" fill="black"/>
<path d="M70.4238 82.1388L98.4004 23.3101H98.424C91.4711 38.2118 96.5384 68.416 112.353 98.9739C128.215 129.579 150.04 151.201 166.256 154.172L165.808 154.148L101.535 143.137L100.05 142.877C92.5788 141.557 82.6091 131.843 75.4676 117.978C68.1376 103.76 66.8413 89.5896 70.0938 82.8461L70.4238 82.1388Z" fill="white"/>
<path d="M166.257 154.69C166.234 154.69 166.257 154.69 166.257 154.69L165.786 154.667C165.762 154.667 165.739 154.667 165.715 154.667L101.442 143.655L99.9571 143.396C92.0614 142.005 82.0445 131.89 74.9973 118.238C67.0074 102.723 66.6067 88.9058 69.6235 82.6338L69.9771 81.9265L97.9537 23.1213C98.0244 23.0034 98.1187 22.9091 98.2601 22.862C98.4015 22.8148 98.5429 22.8148 98.6608 22.8855C98.92 23.0034 99.0379 23.31 98.92 23.5693C91.8257 38.7776 97.4352 69.0054 112.849 98.7616C128.287 128.565 149.806 150.635 166.375 153.676C166.634 153.723 166.823 153.959 166.799 154.242C166.729 154.478 166.516 154.69 166.257 154.69ZM95.7146 30.1949L70.8963 82.3745L70.5427 83.0818C67.5494 89.3066 68.4215 103.218 75.9165 117.742C82.8223 131.135 92.5563 141.038 100.146 142.359L101.63 142.618L159.351 152.521C143.725 145.66 125.459 125.406 111.907 99.2332C98.4486 73.2495 92.4385 46.865 95.7146 30.1949Z" fill="black"/>
<path d="M24.5357 166.008C24.5121 166.008 24.4886 166.008 24.4886 166.008L12.1383 164.687C12.0676 164.687 11.9969 164.664 11.9262 164.617C9.23932 164.192 5.84536 160.797 3.3706 156.034C0.754423 150.988 -0.0233594 146.084 1.41436 143.773L1.43793 143.702L8.22585 131.677C8.36727 131.418 8.67367 131.347 8.93293 131.489C9.19219 131.63 9.26289 131.937 9.12148 132.196L2.33356 144.268C2.33356 144.292 2.30999 144.315 2.30999 144.315C1.08439 146.225 1.90931 150.941 4.2898 155.539C6.62315 160.042 9.99354 163.438 12.3033 163.603C12.374 163.603 12.4683 163.626 12.5154 163.673L24.5829 164.97C24.8657 164.994 25.0778 165.253 25.0307 165.536C25.0071 165.796 24.795 166.008 24.5357 166.008Z" fill="black"/>
<path d="M25.3599 165.489C21.3532 165.206 15.7437 159.524 11.6662 151.672C7.35307 143.349 6.33959 134.742 8.97934 131.677L1.93216 143.938L1.88502 144.032C0.541579 146.107 1.31936 150.894 3.84126 155.775C6.31603 160.585 9.80426 163.933 12.2555 164.121L12.1847 164.169L25.3599 165.489Z" fill="white"/>
<path d="M25.3606 166.008C25.3371 166.008 25.3371 166.008 25.3135 166.008C25.2192 166.008 25.1014 165.984 25.0071 165.984L12.1383 164.688C12.0676 164.688 11.9969 164.664 11.9262 164.617C9.23932 164.192 5.84536 160.797 3.3706 156.034C0.754423 150.988 -0.0233594 146.084 1.41436 143.773L1.43793 143.703L7.63662 132.904C7.87231 132.29 8.17871 131.748 8.55582 131.3C8.7208 131.088 9.0272 131.064 9.23932 131.206C9.45145 131.371 9.52215 131.654 9.38074 131.89L8.50868 133.375C7.1181 137.124 8.48511 144.481 12.0676 151.366C15.9565 158.887 21.2596 164.381 25.0542 164.876L25.3371 164.9C25.6199 164.923 25.832 165.183 25.8085 165.466C25.832 165.796 25.6199 166.008 25.3606 166.008ZM12.5154 163.674L21.5189 164.593C18.0542 162.377 14.236 157.803 11.1956 151.908C8.24942 146.225 6.78813 140.331 7.02382 136.087L2.33356 144.268C2.33356 144.292 2.30999 144.316 2.30999 144.316C1.08439 146.225 1.90931 150.941 4.2898 155.539C6.62315 160.043 9.99354 163.438 12.3033 163.603C12.374 163.603 12.4683 163.627 12.5154 163.674Z" fill="black"/>
<path d="M48.7422 161.787L49.7793 161.575C44.1698 162.754 35.3078 154.265 29.062 142.217C22.6747 129.909 21.4727 117.624 25.998 113.993L25.4088 114.583L9.02819 131.606C6.3413 134.624 7.33121 143.278 11.6679 151.648C15.8397 159.712 21.7555 165.465 25.7859 165.442L48.7422 161.787Z" fill="black"/>
<path d="M25.7622 165.984C21.4726 165.984 15.5096 160.207 11.1964 151.908C6.81256 143.419 5.70481 134.554 8.62738 131.276L24.7016 114.583C24.9844 114.205 25.3144 113.875 25.6679 113.592C25.88 113.427 26.1864 113.451 26.375 113.639C26.5635 113.852 26.5635 114.158 26.375 114.347L25.4558 115.314C22.1797 119.699 23.8059 130.923 29.5332 141.981C35.7084 153.912 44.3347 162.094 49.6142 161.103L49.6849 161.08C49.9677 161.033 50.227 161.198 50.2977 161.481C50.3448 161.763 50.1798 162.023 49.897 162.094C49.8734 162.094 49.8499 162.094 49.8263 162.117L48.86 162.306H48.8364L25.88 165.96C25.8329 165.96 25.7857 165.984 25.7622 165.984ZM23.3345 117.506L9.40517 131.984C6.81256 134.907 7.99102 143.443 12.1392 151.436C16.1931 159.264 21.9204 164.923 25.7622 164.947L46.0317 161.716C40.5636 159.783 33.8228 152.497 28.614 142.476C23.6645 132.927 21.7554 123.212 23.3345 117.506Z" fill="black"/>
<path d="M124.304 72.7539C120.604 74.6402 121.146 83.3879 125.86 92.112C133.755 106.707 140.048 104.986 140.779 104.727C140.803 104.727 140.803 104.75 140.779 104.75L127.227 115.667C123.244 110.079 119.449 103.854 115.961 97.1342C112.637 90.6973 109.833 84.2839 107.617 78.0591L124.304 72.7539Z" fill="black"/>
<path d="M127.227 116.186C127.203 116.186 127.18 116.186 127.156 116.186C127.015 116.162 126.897 116.091 126.803 115.974C122.725 110.244 118.931 103.972 115.513 97.3935C112.237 91.0745 109.409 84.6375 107.146 78.2713C107.099 78.1298 107.099 77.9883 107.17 77.8704C107.24 77.7525 107.335 77.6582 107.476 77.6111L124.163 72.3059C124.422 72.2351 124.705 72.353 124.799 72.6124C124.894 72.8718 124.799 73.1547 124.564 73.2726C123.762 73.6734 123.173 74.4751 122.82 75.654C121.665 79.3559 123.079 85.9107 126.355 91.9233C134.062 106.165 140.002 104.538 140.638 104.302C140.874 104.208 141.156 104.326 141.274 104.538C141.392 104.75 141.345 105.057 141.156 105.222L127.557 116.068C127.463 116.139 127.345 116.186 127.227 116.186ZM108.301 78.3892C110.54 84.5432 113.274 90.7679 116.432 96.8984C119.732 103.265 123.409 109.324 127.345 114.912L139.106 105.434C136.419 105.316 131.352 103.312 125.412 92.3477C121.971 86.0051 120.557 79.3087 121.806 75.2768C121.971 74.758 122.16 74.31 122.395 73.8856L108.301 78.3892Z" fill="black"/>
</svg>
